<?xml version="1.0" encoding="utf-8" standalone="no"?>
<!DOCTYPE svg PUBLIC "-//W3C//DTD SVG 1.1//EN" "http://www.w3.org/Graphics/SVG/1.1/DTD/svg11-flat-20030114.dtd">
<!-- Created by SVGDeveloper 1.0 -->
<svg width="640" height="480" version="1.1" xmlns="http://www.w3.org/2000/svg" xmlns:xlink="http://www.w3.org/1999/xlink" fill="none" stroke="#CC6600">
	<path name="慈溪市" d="M129 51L132 51C132 51 134 49 135 48C137 48 137 44 138 44C140 43 141 44 142 44C143 45 143 43 143 42C142 41 143 41 144 40C144 40 148 37 150 37C152 38 153 35 157 36C161 37 161 33 166 32C166 32 168 32 167 30C166 28 174 31 175 30C175 30 176 27 185 28C195 29 194 27 196 27C198 28 202 26 210 27C219 28 219 27 220 30L226 30L231 32C230 33 239 30 240 37C240 37 239 39 244 38C244 38 260 44 260 47C261 51 260 49 262 51C263 53 274 55 274 55C274 55 278 54 279 59L281 60C281 60 284 58 286 59C287 61 287 61 287 61C287 61 293 61 294 65C294 65 302 68 300 77C300 77 301 82 303 83C305 83 317 99 317 99C317 99 328 102 325 112L333 116C333 116 334 117 333 118C332 119 325 119 325 119L314 113L302 112C301 111 294 111 290 114C290 114 281 112 278 114C276 117 276 116 276 116C276 116 273 115 269 115L267 118C267 118 257 121 259 116C261 111 257 111 257 110C257 109 253 106 251 110L251 111C251 111 245 111 243 111C242 111 240 109 240 109L231 109C231 109 229 108 229 107C229 107 227 105 217 109L216 108C216 108 210 106 209 109C209 109 205 107 201 110L199 111C199 111 200 106 188 109L187 111C187 111 183 112 184 106L181 104L175 103L174 97C174 97 178 94 171 94C164 95 170 91 170 91L174 92L177 90C177 90 183 93 185 86L189 85L193 84C193 84 196 79 189 78L187 75C187 75 183 68 174 75L158 75C158 75 156 77 147 76L146 72L143 70C143 70 142 63 145 62C148 61 145 59 145 59L143 55L140 53C140 52 141 50 141 50C141 50 141 46 133 53L128 52L129 51Z" />
	<path name="余姚市" d="M128 52L133 53C133 53 144 44 140 53L143 55L145 59C145 59 148 61 144 63C144 63 142 69 143 70C144 71 146 72 146 72L147 76C147 76 154 77 158 75L174 75C174 75 183 67 189 78C189 78 196 79 193 84L185 86C185 86 183 93 177 90L174 92L170 91C170 91 164 95 171 94C171 94 178 94 174 97L175 103L181 104L184 106C184 106 183 112 187 111L188 109C188 109 200 106 199 111L202 109C202 109 205 108 209 109C209 109 211 105 217 109C217 109 226 105 229 107L231 109L240 109C240 109 242 111 243 111L251 111C251 111 252 105 257 110C257 110 261 112 259 116L258 122L255 127L255 131L256 133C256 133 255 135 249 138C249 138 248 140 249 143C251 145 246 146 246 146C246 146 242 147 247 149C252 150 248 156 247 157C247 157 244 161 245 163C246 165 241 167 239 168C238 168 236 169 235 164C235 164 236 161 231 165C227 169 228 160 226 161C225 161 223 159 220 161C218 163 217 166 213 169C209 172 205 167 201 169C197 171 202 173 196 173C189 173 197 180 194 181C190 182 190 185 186 185C182 185 182 187 179 188C175 189 175 190 174 194C174 198 170 193 170 196C170 196 170 198 169 201C167 204 169 205 164 203C158 201 157 206 159 209C160 213 162 211 160 217C158 224 164 214 164 222C164 222 163 224 170 222C176 220 180 223 169 227C169 227 145 248 141 235C141 235 143 232 132 237C132 237 132 239 125 233C117 227 129 244 109 242C90 240 110 238 109 236C109 236 104 230 111 227C117 225 106 222 113 218C120 214 102 208 122 212L135 207C135 207 137 201 143 199C149 197 136 192 143 190C143 190 151 182 129 183C129 183 117 179 116 175C115 172 104 169 116 159C129 148 113 150 129 146C146 141 136 139 135 134C134 129 125 131 120 129C115 127 108 127 103 124C98 121 95 118 99 116C103 113 93 112 93 107L91 103C91 103 92 100 85 101C78 103 84 96 81 95C78 94 81 90 81 89C80 88 79 88 78 80C76 71 75 76 74 74C73 72 84 70 84 71C84 72 86 65 91 68C95 70 91 64 97 63C103 62 100 62 104 61C107 60 110 57 113 58C116 59 118 54 120 55C122 56 128 52 128 52Z" />
	<path name="江北区" d="M259 118L263 119L267 118C267 118 268 112 276 116C276 116 279 112 290 114C290 114 293 116 287 120C281 123 281 122 285 127C289 132 285 135 287 136C288 136 293 136 294 138C295 139 300 136 304 138C307 140 307 141 319 146C330 151 318 151 326 153C334 156 330 160 332 161C333 162 332 163 340 162C348 162 350 164 337 165C337 165 333 168 330 168C330 168 329 170 326 170C323 169 322 173 321 174C319 176 318 177 313 172C309 167 307 174 307 168C307 168 309 162 301 165C293 169 299 164 297 163C295 161 293 155 288 163C283 170 279 161 279 160C279 160 274 152 268 157C268 157 263 159 262 154C262 154 262 151 254 152C254 152 248 151 249 150C249 150 239 149 249 144C249 144 248 138 249 138L256 133L255 131L255 127L258 122L259 118Z"/>
	<path name="镇海区" d="M288 119C288 119 293 116 290 114C290 114 296 110 302 112L314 113L324 118C324 118 332 119 333 118C335 116 340 119 340 119L349 124L350 126L363 134L376 139C376 139 382 142 387 141C392 140 392 141 392 141L387 145L382 148L371 150C371 150 365 158 366 158L355 162L351 165L347 164L345 162L334 162C334 162 332 162 331 160C331 160 334 155 324 152C324 152 322 153 324 149L305 139C305 139 303 135 295 138C295 138 290 135 287 136C287 136 286 136 287 132C288 127 277 124 285 121L288 119Z" />
	<path name="北仓区" d="M371 150L382 148L392 141C392 141 392 138 405 146C405 146 413 145 420 153C420 153 428 152 433 156C437 161 439 157 440 158C442 160 448 158 449 159C449 159 458 162 459 165C460 167 473 172 473 172L484 172C485 172 495 166 505 172C515 179 520 166 530 166C540 167 546 169 536 175C526 181 492 190 492 190L472 199C472 199 453 213 452 215C452 218 450 217 450 217L447 213C447 213 442 205 440 214L436 218C436 218 429 216 427 214C424 212 419 210 415 202C415 202 414 198 411 195C408 193 405 199 403 190C402 182 401 194 394 185C394 185 390 184 389 184C388 184 387 183 387 180C387 176 386 174 379 178C372 181 366 186 363 179C363 179 360 178 359 176C357 175 365 174 359 169C352 164 352 164 352 164L365 158L371 150ZM462 158L472 150C472 150 476 145 480 157C480 157 485 160 488 159C492 158 490 164 485 165C480 166 476 167 473 167C471 167 468 167 466 166C464 166 463 165 461 162C459 160 462 158 462 158ZM475 204C475 204 475.5 203.3125 476.3594 202.2969C478.9375 199.25 484.75 193.25 490 194C490 194 495 190 497 192C499 195 498 198 493 201C493 201 490 206 483 208C476 210 470 209 470 209L475 204Z" />
	<path name="海曙区" d="M193 224L186 223C186 223 182 225 179 224C176 224 179 220 169 222L164 223C164 223 165 217 161 219C157 220 162 215 161 213C161 213 155 205 160 203C160 203 162 202 167 204L169 200L170 195C170 195 169 194 173 196C173 196 173 197 174 194C174 191 176 188 179 188C182 188 182 184 186 185C190 186 190 182 193 182C196 182 194 177 194 177C193 177 191 173 197 173C203 173 197 171 201 169C206 167 208 172 214 168C220 164 217 160 223 160C229 161 225 162 228 164C230 166 227 169 234 163C234 163 236 162 235 166C235 169 241 168 242 167C243 165 246 165 245 162C244 160 248 156 248 155C248 155 249 151 253 152C257 153 262 150 263 156C263 156 265 159 270 156C275 153 278 159 279 160C279 161 283 169 288 164C293 159 291 157 296 162C296 162 299 163 297 166C295 169 302 164 304 164C305 164 308 163 307 169C307 169 306 171 311 170C311 170 321 177 315 180C315 180 300 188 301 191C301 194 296 194 295 198C295 201 291 202 289 205C286 208 284 206 282 212C282 212 282 216 277 210C277 210 270 209 269 214C268 219 265 223 260 219C255 216 262 224 241 222C241 222 240 222 239 224C238 226 226 225 225 225C223 225 216 220 212 224C207 228 207 224 202 224C197 223 198 223 198 223L193 224Z" />
	<path name="鄞州区" d="M283 223L282 215C282 215 280 211 284 208C288 205 288 206 291 202C295 199 293 202 296 196C296 196 297 194 300 193C304 191 298 191 304 187C309 183 315 180 315 180C316 179 318 177 321 174C324 170 321 170 328 169L334 167L340 165C340 165 347 164 349 164C352 165 352 164 357 168C362 171 362 173 359 175C359 175 360 178 362 179C365 180 364 183 369 182C374 181 379 178 379 178C379 178 388 170 387 183C387 183 388 184 394 185C394 185 397 190 401 188C405 186 401 190 404 193C408 197 410 192 412 197C415 203 419 208 419 208C419 208 429 216 433 217C438 217 440 221 438 226C435 231 439 231 432 236C425 241 424 240 418 242C411 244 407 247 404 250C401 253 399 256 396 257C394 259 389 258 387 257C385 256 384 255 382 254C379 254 375 254 374 255C373 255 369 253 364 255C360 257 362 256 358 258C354 260 352 262 350 260C347 257 350 257 346 256C343 254 342 252 339 255C336 257 338 259 333 259C329 260 326 261 325 258C324 255 326 254 321 254C316 253 321 251 320 249C318 247 318 247 320 244C321 241 323 241 323 238C322 234 320 236 315 235C315 235 312 237 308 232C305 228 300 231 296 231C292 231 288 232 286 230C283 228 283 227 283 226C283 225 283 223 283 223Z" />
	<path name="奉化区" d="M126 243L128 248C128 248 132 256 135 257C138 257 142 256 142 265C142 274 141 272 144 277C147 283 148 279 152 281C157 283 152 286 160 286C167 287 174 286 177 287C179 289 188 285 188 291C187 298 188 297 189 302C189 308 185 302 185 313C185 313 186 319 183 325C183 325 182 326 191 330C201 333 197 323 200 323C203 323 204 319 205 318C206 318 204 311 208 310C213 309 207 306 219 308C219 308 227 305 230 303C232 300 234 302 237 304C239 306 241 305 244 304C246 304 247 300 249 299C251 299 252 296 254 296C256 295 254 292 257 294C260 295 259 297 262 297C264 298 267 297 270 297C272 296 272 294 274 294C277 294 282 293 282 293L286 294C286 294 285 290 286 289C287 289 290 286 292 286C293 286 298 282 300 285C302 287 301 286 301 288C302 291 302 291 303 292C305 294 304 295 306 295C306 295 309 296 317 288C324 280 330 287 335 286C341 284 347 285 354 284C361 283 364 281 367 280C371 280 385 266 388 266L394 260C394 260 397 261 384 256C384 256 372 253 369 254C366 255 355 259 355 259C355 259 351 264 348 257C348 257 342 252 338 256C335 259 334 259 331 259C331 259 326 262 325 257C324 253 324 254 320 254C316 253 319 252 320 250C320 248 318 248 318 247C318 246 320 244 320 243C321 242 325 237 321 236C318 234 315 236 315 235C315 235 312 235 309 233C306 230 305 229 295 231C295 231 287 232 284 229C282 225 283 224 283 222C283 220 282 217 282 216C282 214 282 214 280 213C278 211 277 210 277 210C277 210 271 207 269 215C267 223 262 220 260 219C258 218 259 217 255 221C255 221 248 223 241 222C241 222 238 223 237 225C236 226 229 225 227 225C224 225 213 220 211 225C211 225 199 224 198 223C197 222 188 225 186 223C186 223 181 225 177 223L174 225C174 225 170 226 169 226L165 230C165 230 142 248 141 235C141 235 143 232 132 237C132 237 134 239 124 233C124 233 122 229 122 235C122 241 126 243 126 243Z" />
	<path name="宁海县" d="M192 331C191 331 188 336 190 338C191 341 189 344 189 344C189 344 190 346 182 348C173 349 176 354 176 356C176 358 176 360 172 362C169 365 172 367 170 369C168 371 167 372 167 375C167 377 171 378 165 379C165 379 163 378 163 386C163 386 163 388 166 388C166 388 169 391 167 392C165 393 162 394 165 395C167 397 168 397 171 397C174 397 171 397 176 397C181 397 187 397 189 397C191 398 190 404 194 406C194 406 196 411 198 412C199 413 200 411 200 417C200 424 200 421 199 425C199 430 205 429 206 430C207 430 214 431 217 431C220 430 224 429 226 428C227 428 231 426 233 425C234 425 237 422 237 421C237 420 241 411 241 410C242 409 243 406 245 405C245 405 247 401 251 403C255 405 256 402 256 412C255 422 258 412 261 414C265 416 267 410 269 411C271 411 276 408 281 412C281 412 293 412 294 412C294 412 304 407 305 406C305 406 314 406 305 403C305 403 305 398 307 397C310 397 312 393 311 391C311 389 313 385 321 390C328 395 326 393 328 391C330 388 327 385 327 384C326 384 327 382 325 381C324 379 321 379 327 378C334 377 334 374 334 379C334 383 332 383 334 387C336 391 339 388 340 393C340 398 342 400 343 401C343 403 346 405 349 406C351 407 368 406 369 406C370 407 377 406 379 405C381 404 379 402 381 401C383 400 382 400 385 402C387 404 387 402 390 402C393 403 391 402 394 403C394 403 398 403 397 401C395 399 392 400 397 398C401 396 400 394 400 393C399 392 400 391 401 390C402 389 404 388 405 385C406 381 407 379 406 377C406 376 407 374 405 373C402 373 404 373 399 373C394 372 395 375 392 373C388 371 390 371 390 369C390 366 390 361 389 357C389 354 390 352 389 351C388 350 386 349 385 348C385 348 380 349 381 337C381 337 382 333 380 331C379 328 370 329 369 330C367 331 366 331 360 330C354 328 356 326 356 325C355 324 356 321 350 321C350 321 349 317 345 318C345 318 345 314 339 316C339 316 334 317 330 315C326 314 326 316 325 310C324 303 319 311 317 313C314 315 315 313 314 322C313 331 309 324 308 326C307 328 308 329 305 330C301 332 303 331 301 332C298 333 297 334 296 334C295 333 294 335 292 333C290 330 289 332 291 329C292 325 293 328 296 326C296 326 302 327 302 326C302 325 300 324 301 322C302 321 303 320 305 317C306 314 307 313 306 311C305 308 303 308 302 307C301 306 301 303 297 304C294 304 294 308 291 308C288 308 288 312 288 314C288 316 282 319 283 322C284 326 281 326 278 327C274 328 270 327 271 325C272 323 274 325 274 321C274 317 273 316 271 314C269 312 265 310 268 309C271 308 272 308 274 306C275 305 274 305 276 304C278 303 280 304 280 302C280 302 278 300 278 299C279 297 279 294 275 294C272 294 270 297 270 297C270 297 262 298 261 297C261 297 259 295 257 294C255 293 256 292 253 296C250 300 248 298 248 300C247 302 246 303 245 303C245 303 243 305 241 305C239 306 237 304 235 303C233 302 233 301 229 304C225 306 219 308 219 308C219 308 212 307 210 309C209 311 206 308 205 317C205 317 204 322 199 323C199 323 198 328 197 330L192 331Z" transform="matrix(1,0,0,1,2,0)" xmlns="http://www.w3.org/2000/svg" />
	<path name="象山县" d="M333 306M331 306C331 306 348 305 355 301C362 297 372 292 375 291C379 289 379 286 384 287C389 288 388 291 393 291C398 291 398 286 400 287C402 288 404 286 405 288C405 288 399 291 398 295C397 298 394 304 399 306C403 308 400 310 405 310C409 309 414 308 417 308C420 307 420 300 419 299C419 298 423 292 427 290C430 289 430 285 419 283C408 281 401 283 398 283C394 282 393 281 406 274C406 274 408 272 408 268C408 265 414 268 418 264C422 259 431 262 434 261C436 259 441 261 445 260C449 259 451 257 452 255C454 253 458 252 460 253C461 254 460 255 462 256C464 256 465 254 466 254C467 254 471 254 471 256C471 258 468 260 475 260C482 260 480 262 483 264C486 267 488 269 482 271C476 272 476 273 473 276C470 278 469 278 468 278C467 277 470 280 467 284C465 287 466 289 467 293C467 296 464 296 470 299C470 299 473 303 472 306C471 310 477 308 480 309C483 310 486 312 483 315C479 318 478 320 476 320C476 320 470 324 467 324C464 324 464 323 462 325C460 327 460 328 457 330C454 331 453 332 453 334C453 335 450 339 453 340C457 340 457 339 459 341C462 343 462 345 460 346C459 348 458 347 459 350C460 352 457 354 462 353C467 352 476 352 469 356C462 360 461 358 463 362C465 365 465 365 464 367C463 369 462 369 466 370C471 370 473 370 474 372C474 372 475 376 479 374C484 372 479 368 484 370C484 370 488 374 485 376C482 378 481 379 478 379C475 380 475 381 474 382C473 383 472 384 473 385C474 386 475 385 477 387C479 389 481 389 479 391C476 392 474 391 472 393C470 394 469 394 469 396C469 398 470 399 467 400C465 400 469 398 462 400C456 402 460 401 455 403C450 405 452 403 447 406C443 409 443 410 439 411C434 412 435 414 430 413C425 412 428 414 422 413C415 412 413 409 410 411C408 412 409 406 407 404C406 401 407 398 407 394C407 394 408 383 413 382C418 380 419 378 418 376C417 373 412 372 413 368C414 364 418 362 419 362C420 362 424 359 425 359C426 359 431 355 420 356L418 353C418 353 413 355 413 351C412 346 411 346 409 344C408 342 409 343 409 342C409 341 403 343 403 343C403 343 400 345 401 347C403 349 404 350 405 350C407 350 408 351 408 352C408 353 406 354 405 354C404 354 401 355 402 356C403 357 407 355 406 357C405 360 404 359 403 362C403 364 402 362 402 365C403 367 404 367 403 369C403 370 405 372 399 371C399 371 396 373 395 373C394 374 389 373 389 371C390 368 390 364 390 363C389 362 389 354 389 354C389 354 391 352 387 350C383 348 382 346 381 344C380 342 381 338 381 336C380 335 382 332 380 330C377 328 375 329 373 329C370 329 368 330 368 330C367 330 362 331 361 330C359 330 356 328 356 327C355 327 357 323 353 321C348 320 350 321 349 319C347 317 345 319 344 316C343 313 340 316 337 316C337 316 331 316 330 315L327 315C327 315 325 315 325 311C325 306 324 307 326 307C328 307 331 306 331 306ZM423 421L427 421C427 421 431 419 432 420C433 420 437 418 435 423C433 429 438 425 439 425C440 426 449 426 438 429C438 429 435 429 435 432C435 434 430 434 428 434C426 433 425 435 424 432C423 428 422 428 423 425C423 422 423 421 423 421ZM410 437C410 436 412 435 415 435C415 435 416 437 417 435C418 433 420 435 420 436C420 436 420 439 422 439C424 439 424 442 423 443C423 444 423 445 422 446C422 446 420 448 417 445C417 445 420 443 414 444C414 444 410 443 409 440L410 437ZM443 416C443 416 452 413 453 413L458 412L462 406C462 406 464 400 472 410C472 410 474 411 478 410C482 410 480 411 481 414C483 417 479 416 478 418C476 421 478 420 481 421C481 421 484 420 482 427C481 434 483 428 476 431C476 431 469 435 475 435C481 435 485 436 480 437C475 439 474 439 473 441C472 443 471 445 469 445C467 445 464 445 464 444C464 442 467 443 466 441C464 440 465 441 462 440C460 440 460 441 459 438C458 436 458 436 458 435C459 435 461 436 460 434C460 434 458 432 458 430C459 428 456 429 454 428C453 428 453 429 451 429C448 429 447 429 447 428C448 426 449 425 447 424C446 423 444 423 443 422C441 422 439 420 441 419C442 417 443 416 443 416ZM497 419C496 417 495 416 495 415C494 414 496 414 496 413C497 412 496 412 495 410C494 408 493 407 495 405C498 404 499 406 499 402C499 398 499 399 501 398C504 397 505 396 507 397C509 399 507 396 510 396C512 396 516 395 514 398C512 401 509 400 512 403C515 406 521 404 517 408C513 411 513 408 513 411C512 414 514 414 512 416C511 417 515 416 510 417C505 419 506 421 504 419C504 419 504 416 501 417C501 417 502 421 500 420C498 420 497 419 497 419ZM557 330L560 332C560 332 562 332 563 332C563 332 566 333 566 334C566 334 566 335 564 335C563 335 560 336 559 335C558 335 558 334 556 334C553 334 552 332 554 331C556 329 557 330 557 330ZM565 328C565 328 569 328 570 329C571 329 573 330 573 330C572 331 572 331 568 331C565 330 565 329 563 330C562 331 561 329 564 328C566 326 565 328 565 328ZM575 316C578 317 578 317 578 318C578 319 581 317 578 320C576 322 576 323 575 323C575 323 574 321 574 320C575 319 575 316 575 316Z" transform="matrix(1,0,0,1,3,0)" xmlns="http://www.w3.org/2000/svg" />
</svg>
